<?xml version="1.0" standalone="no"?>
<!DOCTYPE svg PUBLIC "-//W3C//DTD SVG 20010904//EN"
 "http://www.w3.org/TR/2001/REC-SVG-20010904/DTD/svg10.dtd">
<svg version="1.0" xmlns="http://www.w3.org/2000/svg"
 width="700.000000pt" height="700.000000pt" viewBox="0 0 700.000000 700.000000"
 preserveAspectRatio="xMidYMid meet">
<metadata>
Created by potrace 1.14, written by Peter Selinger 2001-2017
</metadata>
<g transform="translate(0.000000,700.000000) scale(0.100000,-0.100000)"
fill="#000000" stroke="none">
<path d="M4911 6119 c-83 -17 -151 -78 -174 -156 -17 -59 -16 -4894 2 -4937
21 -51 70 -104 119 -128 l47 -23 515 1 c572 0 564 -1 631 65 80 78 73 -173 73
2547 1 1975 -1 2442 -12 2479 -17 59 -86 128 -144 144 -31 9 -176 13 -535 13
-270 1 -505 -2 -522 -5z"/>
<path d="M1045 4714 c-47 -11 -63 -22 -108 -67 -65 -65 -61 74 -61 -1831 -1
-1239 2 -1741 10 -1773 15 -58 60 -112 120 -143 l48 -25 521 0 520 0 49 25
c60 31 105 85 120 143 8 31 11 536 11 1773 l0 1729 -24 47 c-23 49 -76 99
-127 119 -40 16 -1017 19 -1079 3z"/>
<path d="M2999 3379 c-86 -16 -138 -55 -175 -134 l-24 -50 0 -1066 c0 -1189
-4 -1112 70 -1184 73 -71 75 -71 646 -70 507 1 509 1 552 23 50 27 79 56 109
115 l22 42 1 1058 c0 776 -3 1070 -12 1104 -15 63 -86 137 -148 154 -48 13
-973 20 -1041 8z"/>
</g>
</svg>
